<svg fill="#000000" viewBox="0 0 24 24" id="car-alert" data-name="Flat Line" xmlns="http://www.w3.org/2000/svg" class="icon flat-line"><title>Kategori kendaraan</title><g id="SVGRepo_bgCarrier" stroke-width="0"></g><g id="SVGRepo_tracerCarrier" stroke-linecap="round" stroke-linejoin="round"></g><g id="SVGRepo_iconCarrier"><path id="secondary" d="M20.24,12.81l-3.93-1a1,1,0,0,1-.65-.52L14.28,8.55a1,1,0,0,0-.9-.55H7.62a1,1,0,0,0-.9.55L5,12l-1.45.72a1,1,0,0,0-.55.9V17a1,1,0,0,0,1,1H5a2,2,0,0,1,4,0h6a2,2,0,0,1,4,0h1a1,1,0,0,0,1-1V13.78A1,1,0,0,0,20.24,12.81Z" style="fill: rgba(226, 203, 68, 0.15); stroke-width: 2;"></path><line id="primary-upstroke" x1="13.95" y1="11.5" x2="14.05" y2="11.5" style="fill: none; stroke: #353438; stroke-linecap: round; stroke-linejoin: round; stroke-width: 2.5;"></line><path id="primary" d="M19,18h1a1,1,0,0,0,1-1V13.78a1,1,0,0,0-.76-1L19,12.5" style="fill: none; stroke: #353438; stroke-linecap: round; stroke-linejoin: round; stroke-width: 2;"></path><path id="primary-2" data-name="primary" d="M10,8H7.62a1,1,0,0,0-.9.55L5,12l-1.45.72a1,1,0,0,0-.55.9V17a1,1,0,0,0,1,1H5" style="fill: none; stroke: #353438; stroke-linecap: round; stroke-linejoin: round; stroke-width: 2;"></path><path id="primary-3" data-name="primary" d="M9,18h6M7,20a2,2,0,1,1,2-2A2,2,0,0,1,7,20Zm10,0a2,2,0,1,1,2-2A2,2,0,0,1,17,20ZM14,4V7" style="fill: none; stroke: #353438; stroke-linecap: round; stroke-linejoin: round; stroke-width: 2;"></path></g></svg>